<svg xmlns="http://www.w3.org/2000/svg" width="256" height="256" viewBox="0 0 67.734 67.734"><path d="M55.206 47.867c-.364.02-.9.254-1.532.694-5.146 3.52-13.2 5.5-21.06 5.206-7.028-.27-13.214-2.03-18.036-5.12-1.56-1.004-2.506-.98-2.626.07-.08.7 1.56 9.9 2.136 11.996.344 1.25 2.44 3.196 4.5 4.166s5.336 1.984 7.904 2.44l-.016-.008c3.424.6 11.38.556 14.9-.094 6.05-1.1 10.496-3.3 11.756-5.78.436-.856 2.652-11.732 2.652-13.006 0-.4-.204-.588-.568-.566zM33.86 4.52c5.326 0 10.648.448 14.246 1.344 4.908 1.2 5.986 2.9 2.86 4.48-1.444.72-2.83 1.088-6.48 1.694h-.006c-2.36.4-13.548.734-16.624.5-8.82-.646-14.34-2.752-12.5-4.774.784-.84 1.766-1.292 4.254-1.9 3.6-.896 8.94-1.344 14.264-1.344zm.363-4.52C23.446-.064 12.76 2.01 7.696 5.32c-1.88 1.228-2.388 1.756-2.944 3.1-.366.874-.37 1.308-.032 3.668l2.586 16.026 1.4 8.176c.326 1.948.72 3.88.88 4.3.44 1.168 2.9 3.234 5.14 4.32 3.9 1.894 7.048 2.74 13.472 3.6l-.01-.002c.45.06 3.516.07 6.812.024 4.668-.066 6.606-.208 8.764-.64 5.82-1.164 10.58-3.2 13.056-5.64 1.64-1.6 1.42-.814 3.25-11.576C63.006 13.44 63.5 9.935 63.176 8.76 62.562 6.6 58.618 4 53.656 2.56 48.806 1.13 45.532.604 38.832.164c-1.534-.1-3.07-.153-4.608-.162z" fill="#4682b4"/><path d="M33.998 17.29c-1.215-.004-2.472.115-3.708.37-2.303.474-4.686 1.557-6.67 3.034-.818.618-2.307 2.04-2.966 2.843-1.992 2.435-3.3 5.467-3.716 8.615-.206 1.57-.13 3.897.17 5.05.783 3.012 2.87 4.583 6.86 5.15 1.75.257 2.88.288 10.774.264 6.716-.016 8.083-.04 8.895-.16 2.775-.402 4.17-.962 5.368-2.153 1.335-1.34 1.912-3.13 1.916-5.978 0-2.744-.536-5.068-1.74-7.498-.864-1.825-2.07-3.468-3.55-4.84-3.166-3.053-7.3-4.697-11.65-4.717z" fill="#9cc3e4" stroke="#12538a" stroke-width="1.362"/><path d="M28.04 26c1.12 0 2.03.934 2.03 2.084s-.9 2.084-2.03 2.084S26 29.233 26 28.083 26.908 26 28.04 26zm12.82.047c1.12 0 2.03.934 2.03 2.084s-.9 2.084-2.03 2.084-2.03-.934-2.03-2.084.9-2.084 2.03-2.084zm-9.834 6.98c.96.036 2.272.424 3.68.424 2.812 0 4.94-1.55 4.94 1.264s-2.28 5.094-5.094 5.094-5.094-2.28-5.094-5.094c0-1.408.608-1.724 1.568-1.688z" fill="#12538a"/></svg>