<svg xmlns="http://www.w3.org/2000/svg" width="128" height="128" viewBox="0 0 33.867 33.867"><path d="M27.603 23.934c-.182.01-.45.127-.766.347-2.573 1.76-6.6 2.755-10.53 2.603-3.514-.135-6.607-1.015-9.018-2.56-.78-.502-1.253-.5-1.313.035-.04.345.78 4.945 1.068 5.998.172.625 1.22 1.598 2.25 2.083s2.668.992 3.952 1.22l-.008-.004c1.712.3 5.7.278 7.45-.047 3.025-.555 5.248-1.65 5.878-2.9.218-.428 1.326-5.866 1.326-6.503 0-.2-.102-.294-.284-.283zM16.93 2.26c2.663 0 5.324.224 7.123.672 2.454.6 2.993 1.455 1.43 2.24-.722.36-1.415.544-3.24.847h-.003c-1.18.2-6.774.367-8.312.25-4.4-.323-7.17-1.376-6.25-2.387.392-.42.883-.646 2.127-.95 1.805-.448 4.47-.672 7.132-.672zm.18-2.26C11.723-.032 6.38 1.006 3.848 2.66c-.94.614-1.194.878-1.472 1.55-.183.437-.185.654-.016 1.834l1.293 8.013.7 4.088c.163.974.36 1.94.44 2.15.22.584 1.45 1.617 2.57 2.16 1.95.947 3.524 1.37 6.736 1.8l-.005-.001c.225.03 1.758.035 3.406.012 2.334-.033 3.303-.104 4.382-.32 2.9-.582 5.3-1.6 6.528-2.82.82-.8.7-.407 1.625-5.788C31.503 6.72 31.75 4.968 31.588 4.38c-.307-1.08-2.28-2.38-4.76-3.1C24.403.565 22.766.302 19.416.082a39.164 39.164 0 0 0-2.304-.081z" fill="#4682b4"/><path d="M17 8.645c-.608-.002-1.236.058-1.854.185-1.152.237-2.343.78-3.335 1.517-.41.31-1.154 1.02-1.483 1.42-.996 1.217-1.65 2.734-1.858 4.307-.103.785-.065 1.95.085 2.526.39 1.506 1.435 2.292 3.43 2.575.876.13 1.44.144 5.387.132l4.448-.08c1.387-.2 2.086-.48 2.684-1.076.667-.67.956-1.566.958-2.99a8.06 8.06 0 0 0-.869-3.749 7.927 7.927 0 0 0-1.775-2.421c-1.583-1.526-3.65-2.348-5.826-2.36z" fill="#9cc3e4" stroke="#12538a" stroke-width=".681"/><path d="M14.02 13a1.03 1.03 0 0 1 1.015 1.042c0 .575-.45 1.042-1.015 1.042s-1.015-.467-1.015-1.042S13.454 13 14.02 13zm6.4.024a1.03 1.03 0 0 1 1.015 1.042c0 .575-.45 1.042-1.015 1.042s-1.015-.467-1.015-1.042.45-1.042 1.015-1.042zm-4.917 3.5c.48.018 1.136.212 1.84.212 1.406 0 2.47-.775 2.47.632s-1.14 2.547-2.547 2.547-2.547-1.14-2.547-2.547c0-.704.304-.862.784-.844z" fill="#12538a"/></svg>