<svg xmlns="http://www.w3.org/2000/svg" width="256" height="256" viewBox="0 0 67.734 67.734"><path d="M34.226.002C23.45-.064 12.764 2.013 7.702 5.323c-1.88 1.227-2.388 1.755-2.943 3.1-.365.874-.37 1.307-.032 3.667l2.585 16.024 1.38 8.175c.325 1.947.718 3.88.88 4.297.44 1.168 2.902 3.234 5.14 4.322 3.9 1.894 7.047 2.74 13.47 3.62l-.01-.002c.45.058 3.515.07 6.812.023 4.667-.066 6.606-.207 8.763-.64 5.817-1.164 10.58-3.22 13.055-5.637 1.642-1.6 1.422-.814 3.25-11.574 2.935-17.232 3.43-20.737 3.105-21.912-.596-2.186-4.54-4.766-9.5-6.224C48.806 1.13 45.533.604 38.833.164a78.32 78.32 0 0 0-4.608-.162zm-.336 4.522c5.325 0 10.647.448 14.245 1.343 4.908 1.22 5.986 2.91 2.858 4.477-1.443.722-2.83 1.088-6.48 1.694l-.005.003c-2.36.4-13.546.734-16.623.5-8.817-.646-14.338-2.752-12.5-4.774.783-.84 1.766-1.292 4.253-1.9 3.61-.895 8.937-1.343 14.262-1.343zm.33 11.935c8.516 0 15.882 6.134 17.437 14.52.64 3.446.236 6.822-1.05 8.8-1.523 2.333-3.987 3.345-8.8 3.612-1.764.098-13.04.092-14.866-.007-4.435-.242-7.142-1.246-8.746-3.246-1.616-2.016-2.132-5.49-1.384-9.328 1.617-8.3 8.945-14.34 17.398-14.34zm.107 1.18c-1.182-.005-2.38.112-3.58.36-2.236.46-4.55 1.512-6.476 2.945-.794.6-2.24 1.977-2.88 2.76-1.933 2.363-3.203 5.308-3.607 8.364-.202 1.524-.125 3.784.165 4.904.76 2.923 2.785 4.45 6.66 5.02 1.7.25 2.795.277 10.456.256 6.52-.017 7.848-.04 8.636-.155 2.693-.39 4.05-.934 5.212-2.09 1.296-1.3 1.856-3.04 1.857-5.803.001-2.663-.522-4.92-1.688-7.28a15.39 15.39 0 0 0-3.446-4.7c-3.073-2.963-7.088-4.56-11.31-4.578zM28.033 26c1.122 0 2.03.933 2.03 2.084s-.9 2.084-2.03 2.084-2.03-.933-2.03-2.084.9-2.084 2.03-2.084zm12.816.047c1.122 0 2.03.933 2.03 2.084s-.9 2.084-2.03 2.084-2.03-.933-2.03-2.084.9-2.084 2.03-2.084zm-9.833 6.977c.96.036 2.272.423 3.678.423 2.812 0 4.94-1.55 4.94 1.264s-2.28 5.093-5.093 5.093-5.093-2.28-5.093-5.093c0-1.407.608-1.723 1.568-1.687zm24.25 14.84c-.364.022-.9.253-1.532.693-5.145 3.522-13.197 5.51-21.06 5.206-7.027-.27-13.212-2.03-18.034-5.12-1.562-1.004-2.506-.978-2.626.07-.078.69 1.558 9.89 2.136 11.995.344 1.25 2.44 3.195 4.5 4.165s5.336 1.984 7.904 2.44l-.016-.008c3.423.6 11.376.555 14.9-.093 6.05-1.11 10.494-3.298 11.754-5.778.435-.856 2.652-11.73 2.652-13.004 0-.4-.204-.588-.568-.566z" fill="#0074d3"/></svg>